PathFileType	4	(X/Y/Z)	C:/Users/opensim2020/Desktop/walking_exp_matlab/subject06_walking22_straight_04.trc																																																																																																																																		
DataRate	CameraRate	NumFrames	NumMarkers	Units	OrigDataRate	OrigDataStartFrame	OrigNumFrames																																																																																																																														
100	100	6	44	mm	100	2264	102																																																																																																																														
Frame#	Time	LFHD			RFHD			LBHD			RBHD			C7			T10			CLAV			STRN			RBAK			LSHO			LUPA			LELB			LFRM			LWRA			LWRB			LFIN			RSHO			RUPA			RELB			RFRM			RWRA			RWRB			RFIN			LASI			RASI			LPSI			RPSI			LTHI			LKNE			LTIB			LANK			LHEE			LTOE			RTHI			RKNE			RTIB			RANK			RHEE			RTOE			*39			*40			*41			*42			*43		
		X1	Y1	Z1	X2	Y2	Z2	X3	Y3	Z3	X4	Y4	Z4	X5	Y5	Z5	X6	Y6	Z6	X7	Y7	Z7	X8	Y8	Z8	X9	Y9	Z9	X10	Y10	Z10	X11	Y11	Z11	X12	Y12	Z12	X13	Y13	Z13	X14	Y14	Z14	X15	Y15	Z15	X16	Y16	Z16	X17	Y17	Z17	X18	Y18	Z18	X19	Y19	Z19	X20	Y20	Z20	X21	Y21	Z21	X22	Y22	Z22	X23	Y23	Z23	X24	Y24	Z24	X25	Y25	Z25	X26	Y26	Z26	X27	Y27	Z27	X28	Y28	Z28	X29	Y29	Z29	X30	Y30	Z30	X31	Y31	Z31	X32	Y32	Z32	X33	Y33	Z33	X34	Y34	Z34	X35	Y35	Z35	X36	Y36	Z36	X37	Y37	Z37	X38	Y38	Z38	X39	Y39	Z39	X40	Y40	Z40	X41	Y41	Z41	X42	Y42	Z42	X43	Y43	Z43	X44	Y44	Z44
																																																																																																																																					
77	0.76	370.56476	1641.55164	913.45197	389.103	1633.63342	1044.0011	235.26532	1596.56836	934.47412	256.02985	1593.62024	1062.42346	235.93906	1433.40063	980.14227	215.24847	1101.3479	983.24677	348.58707	1359.30359	981.341	394.85965	1187.27466	967.35583	165.9283	1257.41467	1047.70593	294.95831	1392.71875	819.62012	322.91379	1194.63208	744.22089	341.50894	1082.77185	731.93848	436.86511	966.49518	721.17328	548.17957	914.39124	774.6441	505.81723	870.38019	739.04767	588.36871	835.58136	742.63	294.00732	1385.78296	1141.73816	211.15198	1208.05151	1229.40271	187.99622	1088.02661	1248.26343	167.71181	970.27325	1272.2356	182.51079	817.85553	1249.6897	131.0295	837.73206	1289.48267	140.65536	752.80023	1292.6626	388.15942	941.53723	870.94391	412.98694	966.06738	1091.0094	234.07233	962.08392	913.26703	256.2973	980.75159	1079.40137	336.94553	613.57031	835.92242	349.37131	451.53119	856.4671	147.0257	312.81604	867.51569	4.7517	219.66217	906.89319	-27.85254	245.08176	953.32251	49.41668	81.08762	911.90674	425.99063	638.10693	1160.10168	462.43948	518.49799	1130.96533	423.14359	252.17738	1131.93408	401.0556	69.9052	1082.82471	361.86191	46.04362	1038.64697	554.31921	31.47287	1087.26514	282.82245	1687.80933	985.48016	NaN	NaN	NaN	NaN	NaN	NaN	NaN	NaN	NaN	NaN	NaN	NaN
78	0.77	384.81812	1643.79443	912.71436	403.79459	1636.10571	1043.1853	249.30672	1599.30945	934.20325	270.58591	1596.5509	1062.13818	249.92307	1436.23682	980.60925	228.47379	1104.04883	984.44336	362.51788	1361.96448	981.2478	408.3696	1189.94507	967.46332	180.01517	1260.21936	1049.31531	307.73254	1395.17419	819.7547	333.06757	1196.43335	744.758	350.7778	1084.46814	732.90741	443.51819	965.64185	721.60352	553.1969	909.93036	774.60992	509.01608	867.13562	739.742	590.67261	829.74487	742.76501	308.64304	1389.03931	1141.80713	228.69691	1210.06921	1230.60718	207.59991	1089.75842	1249.34851	190.76292	971.49316	1273.27051	210.11197	819.81177	1249.97144	157.93311	837.83911	1290.05457	170.49333	753.44861	1293.51099	401.00342	944.71674	871.21381	426.18753	968.56458	1090.79065	247.15314	964.7691	913.69763	269.45499	983.36597	1079.54614	356.13824	616.67578	836.51062	373.79373	455.18915	857.19855	174.71373	312.48157	867.73083	34.37922	215.7668	907.39374	0.23124	239.94394	953.66327	85.15302	79.86861	912.76007	434.77167	639.11938	1159.96985	468.33505	518.30902	1131.24121	425.68088	252.02791	1132.15906	401.4227	69.93805	1083.25879	361.22687	46.72594	1038.71704	554.39362	31.31497	1087.37402	297.56616	1690.56311	984.92877	NaN	NaN	NaN	NaN	NaN	NaN	NaN	NaN	NaN	NaN	NaN	NaN
79	0.78	398.93661	1645.95886	911.81506	418.43442	1638.45837	1042.21484	263.82648	1601.70996	934.02826	285.21991	1599.2345	1061.76355	263.9386	1438.61194	981.01782	241.69458	1106.73486	985.61377	376.33679	1364.47302	981.12695	421.86609	1192.48682	967.50421	194.03342	1262.92847	1051.03906	320.29413	1397.4563	819.93066	343.23743	1198.25244	745.32983	359.94113	1086.18701	733.99335	449.46268	964.78351	721.96509	557.64227	905.44775	774.31415	511.91068	864.12402	739.40027	592.38251	823.9223	742.46033	323.2717	1392.09753	1141.86072	246.19864	1212.07227	1231.71448	227.10936	1091.46826	1250.46594	213.72859	972.77161	1274.17847	237.78339	822.073	1250.29932	185.13156	838.05182	1290.49146	201.07007	754.41901	1293.84338	414.15646	947.83978	871.54578	438.82642	970.90576	1090.547	260.24323	967.28979	913.89111	282.24484	985.7735	1079.64954	375.09402	619.98511	836.73694	397.64984	459.03833	857.54016	202.53923	311.66519	868.18152	64.79831	210.68884	908.00238	29.11226	233.22173	954.10046	122.75258	78.23489	913.44788	443.17349	639.75354	1159.74878	473.97879	517.9472	1131.30774	428.1293	251.96106	1132.38086	401.29843	70.16791	1083.28894	361.13495	47.00074	1038.95764	554.40942	31.22383	1087.54382	312.03702	1693.1189	984.26208	NaN	NaN	NaN	NaN	NaN	NaN	NaN	NaN	NaN	NaN	NaN	NaN
80	0.79	412.96115	1647.86707	910.81299	432.89749	1640.7262	1041.1803	277.50439	1604.26013	933.43146	299.60315	1601.92273	1061.37854	277.7486	1441.02698	981.60474	254.60849	1109.39905	986.82556	390.31873	1366.90332	980.81903	435.19293	1194.78735	967.48083	208.21596	1265.55432	1052.75928	332.88446	1399.61499	820.0025	353.50647	1200.05444	745.97491	368.60898	1087.69751	735.24512	454.58344	963.87567	722.82544	561.50769	900.98218	773.776	514.38275	861.24152	738.76129	593.67224	818.39874	741.56531	337.96524	1395.01929	1141.87476	263.65649	1213.90796	1232.57263	246.37962	1093.1853	1251.52234	236.53078	974.19702	1275.01208	265.70813	824.67657	1250.57703	212.4753	838.49402	1290.73962	231.74364	755.87561	1294.19604	427.26813	950.71057	871.95953	451.25125	973.05682	1090.62415	273.4342	969.99396	913.55518	294.83868	988.18463	1079.34509	393.76804	623.30255	836.63989	420.99893	463.05811	857.63275	230.29391	310.55286	868.68256	96.11139	204.42616	908.68732	58.92218	225.0414	954.66766	161.91359	76.3516	913.435	451.4989	640.16998	1159.30237	479.42276	517.6076	1131.42078	430.17831	252.03926	1132.41614	401.59756	70.25924	1083.67334	361.15808	47.34834	1039.09338	554.41949	31.14512	1087.73438	326.47076	1695.46863	983.47504	NaN	NaN	NaN	NaN	NaN	NaN	NaN	NaN	NaN	NaN	NaN	NaN
81	0.8	426.80215	1649.61279	909.71313	447.33691	1642.7887	1039.94177	291.6622	1605.85339	933.27197	314.11407	1604.22229	1060.85767	291.55844	1443.26355	982.15436	267.69199	1111.8064	987.84021	403.96838	1369.00586	980.53577	448.49112	1196.84424	967.41614	222.08365	1268.17566	1054.52734	344.98407	1401.91858	820.04639	363.36829	1201.68213	746.84882	376.84213	1089.06543	736.53784	459.39484	962.86353	723.22443	565.02948	896.50171	772.91077	516.34723	858.56409	737.95544	594.22046	812.55688	740.66949	352.82477	1397.63416	1141.81055	280.90076	1215.72156	1233.60754	265.4566	1094.84229	1252.59924	259.29028	975.61176	1275.79712	293.46634	827.43146	1250.78149	240.15427	839.07672	1290.88293	262.80923	757.61383	1294.1842	440.52936	953.3537	872.39801	463.39124	974.77307	1091.02405	286.61267	972.45172	913.25629	307.25027	990.23926	1079.0271	412.30582	626.61121	836.17053	443.89798	467.12134	857.51221	258.18341	308.88223	869.27228	128.18745	197.24564	909.4491	89.93912	215.64186	955.56476	201.1992	73.66013	913.10437	459.7283	640.68634	1159.31982	484.72281	517.16522	1131.53821	431.51834	252.34114	1132.46985	401.82074	70.54081	1083.6405	361.25919	47.74499	1039.01697	554.38617	31.07951	1087.89832	340.70712	1697.54749	982.62408	NaN	NaN	NaN	NaN	NaN	NaN	NaN	NaN	NaN	NaN	NaN	NaN
82	0.81	440.46167	1651.0946	908.4408	461.57785	1644.67358	1038.65234	305.42661	1607.60669	932.79962	328.57477	1606.13574	1060.4447	305.28696	1445.24341	982.54871	280.74246	1114.02112	988.6593	417.60162	1370.84399	980.20459	461.58685	1198.60938	967.43457	236.03362	1270.68469	1056.14429	357.25162	1403.64319	820.078	373.43536	1203.10559	747.42493	384.75259	1090.08484	737.84741	463.79886	961.69781	723.32184	567.56812	891.58167	772.15948	518.00262	855.83765	736.75781	594.24316	806.85657	739.45227	367.73828	1400.04456	1141.73181	298.06201	1217.49548	1234.83252	284.30984	1096.36975	1253.72498	282.04907	977.00659	1276.52942	322.07571	830.64569	1250.72583	267.87189	839.86823	1290.80225	293.51291	758.92914	1293.79517	453.70364	955.68671	872.91248	475.26257	975.95667	1091.63708	299.57764	974.67688	912.7652	319.42154	992.05017	1078.73083	430.66003	629.91693	835.34033	466.44272	471.35596	857.24207	286.35489	306.56223	869.68475	161.17484	189.22313	910.10791	122.13576	205.26778	956.63867	241.30534	70.51617	912.15088	466.44507	640.17798	1158.57275	489.77286	516.6413	1131.52734	432.42221	252.79086	1132.25891	402.0567	70.88206	1083.37402	361.48755	48.24806	1038.63904	554.45233	31.00131	1087.98975	354.79401	1699.36523	981.62799	NaN	NaN	NaN	NaN	NaN	NaN	NaN	NaN	NaN	NaN	NaN	NaN
